<svg aria-hidden="true" style="position: absolute; width: 0; height: 0; overflow: hidden;" version="1.1" xmlns="http://www.w3.org/2000/svg" xmlns:xlink="http://www.w3.org/1999/xlink">
<defs>
<symbol id="icon-like" viewBox="0 0 32 32">
<title>like</title>
<path d="M15.969 28.844h0.031q1.313-0.031 3.563-1.609t4.438-3.969 3.797-5.672 1.609-6.281q0-3.063-2.172-5.375t-5.047-2.313q-3.563 0-6.188 3.656-2.625-3.656-6.188-3.656-2.875 0-5.047 2.313t-2.172 5.375q0 3 1.609 6.281t3.797 5.672 4.422 3.969 3.547 1.609zM9.813 5.625q1.094 0 2.094 0.516t1.672 1.313 0.984 1.25 0.5 0.828l0.031 0.063q0.219 0.563 0.906 0.563t0.938-0.563q0-0.031 0.219-0.422t0.672-0.984 1.047-1.172 1.484-0.984 1.828-0.406q2.094 0 3.656 1.703t1.563 3.984q0 2.156-0.984 4.531t-2.453 4.25-3.078 3.438-2.938 2.422-1.953 0.891q-0.625-0.031-1.953-0.891t-2.938-2.422-3.078-3.438-2.453-4.25-0.984-4.531q0-2.281 1.563-3.984t3.656-1.703z"></path>
</symbol>
<symbol id="icon-comment" viewBox="0 0 32 32">
<title>comment</title>
<path d="M13.188 2.969l5.531 0.031q4.375 0 7.391 3t3.016 7.375v0.031q0 2.344-1.078 4.563t-2.984 3.844q-2.375 2-10.781 7.344-0.25 0.156-0.531 0.156-0.563 0-0.844-0.469-0.156-0.25-0.156-0.531v-5.094q-4.281-0.156-7.125-2.953t-2.844-6.891q0-4.375 3.016-7.391t7.391-3.016zM23.781 20.281q1.563-1.344 2.453-3.172t0.891-3.734q0-3.531-2.438-5.953t-5.969-2.422l-5.531-0.031q-3.531 0-5.969 2.438t-2.438 5.969q0 3.406 2.391 5.625t6.047 2.219h0.531q0.406 0 0.703 0.297t0.297 0.703v4.25q7.5-4.906 9.031-6.188z"></path>
</symbol>
<symbol id="icon-retweet" viewBox="0 0 32 32">
<title>retweet</title>
<path d="M31.688 20.906q0.313 0.281 0.313 0.688t-0.313 0.719l-4.656 4.656q-0.313 0.313-0.719 0.313-0.375 0-0.688-0.313l-4.688-4.656q-0.281-0.313-0.281-0.719t0.281-0.688q0.313-0.313 0.719-0.313t0.688 0.313l2.969 2.938v-13.656q0-1.219-0.875-2.109t-2.125-0.891h-7.781q-0.406 0-0.703-0.281t-0.297-0.719q0-0.406 0.297-0.703t0.703-0.297h7.781q2.063 0 3.531 1.469t1.469 3.531v13.656l2.969-2.938q0.281-0.313 0.703-0.313t0.703 0.313zM9.688 25.281h7.781q0.406 0 0.703 0.297t0.297 0.703-0.297 0.703-0.703 0.297h-7.781q-2.063 0-3.531-1.469t-1.469-3.531v-13.656l-2.969 2.938q-0.281 0.313-0.703 0.313t-0.703-0.313q-0.313-0.281-0.313-0.688t0.313-0.719l4.656-4.656q0.313-0.313 0.719-0.313t0.688 0.313l4.688 4.656q0.281 0.313 0.281 0.719t-0.281 0.688q-0.281 0.313-0.719 0.313-0.406 0-0.719-0.313l-2.938-2.938v13.656q0 1.219 0.875 2.109t2.125 0.891z"></path>
</symbol>
</defs>
</svg>
