<!-- Generated by IcoMoon.io -->
<svg version="1.1" xmlns="http://www.w3.org/2000/svg" width="32" height="32" viewBox="0 0 32 32">
<title>comment</title>
<path d="M13.188 2.969l5.531 0.031q4.375 0 7.391 3t3.016 7.375v0.031q0 2.344-1.078 4.563t-2.984 3.844q-2.375 2-10.781 7.344-0.25 0.156-0.531 0.156-0.563 0-0.844-0.469-0.156-0.25-0.156-0.531v-5.094q-4.281-0.156-7.125-2.953t-2.844-6.891q0-4.375 3.016-7.391t7.391-3.016zM23.781 20.281q1.563-1.344 2.453-3.172t0.891-3.734q0-3.531-2.438-5.953t-5.969-2.422l-5.531-0.031q-3.531 0-5.969 2.438t-2.438 5.969q0 3.406 2.391 5.625t6.047 2.219h0.531q0.406 0 0.703 0.297t0.297 0.703v4.25q7.5-4.906 9.031-6.188z"></path>
</svg>
