<!-- Generated by IcoMoon.io -->
<svg version="1.1" xmlns="http://www.w3.org/2000/svg" width="32" height="32" viewBox="0 0 32 32">
<title>like</title>
<path d="M15.969 28.844h0.031q1.313-0.031 3.563-1.609t4.438-3.969 3.797-5.672 1.609-6.281q0-3.063-2.172-5.375t-5.047-2.313q-3.563 0-6.188 3.656-2.625-3.656-6.188-3.656-2.875 0-5.047 2.313t-2.172 5.375q0 3 1.609 6.281t3.797 5.672 4.422 3.969 3.547 1.609zM9.813 5.625q1.094 0 2.094 0.516t1.672 1.313 0.984 1.25 0.5 0.828l0.031 0.063q0.219 0.563 0.906 0.563t0.938-0.563q0-0.031 0.219-0.422t0.672-0.984 1.047-1.172 1.484-0.984 1.828-0.406q2.094 0 3.656 1.703t1.563 3.984q0 2.156-0.984 4.531t-2.453 4.25-3.078 3.438-2.938 2.422-1.953 0.891q-0.625-0.031-1.953-0.891t-2.938-2.422-3.078-3.438-2.453-4.25-0.984-4.531q0-2.281 1.563-3.984t3.656-1.703z"></path>
</svg>
