<!-- Generated by IcoMoon.io -->
<svg version="1.1" xmlns="http://www.w3.org/2000/svg" width="32" height="32" viewBox="0 0 32 32">
<title>retweet</title>
<path d="M31.688 20.906q0.313 0.281 0.313 0.688t-0.313 0.719l-4.656 4.656q-0.313 0.313-0.719 0.313-0.375 0-0.688-0.313l-4.688-4.656q-0.281-0.313-0.281-0.719t0.281-0.688q0.313-0.313 0.719-0.313t0.688 0.313l2.969 2.938v-13.656q0-1.219-0.875-2.109t-2.125-0.891h-7.781q-0.406 0-0.703-0.281t-0.297-0.719q0-0.406 0.297-0.703t0.703-0.297h7.781q2.063 0 3.531 1.469t1.469 3.531v13.656l2.969-2.938q0.281-0.313 0.703-0.313t0.703 0.313zM9.688 25.281h7.781q0.406 0 0.703 0.297t0.297 0.703-0.297 0.703-0.703 0.297h-7.781q-2.063 0-3.531-1.469t-1.469-3.531v-13.656l-2.969 2.938q-0.281 0.313-0.703 0.313t-0.703-0.313q-0.313-0.281-0.313-0.688t0.313-0.719l4.656-4.656q0.313-0.313 0.719-0.313t0.688 0.313l4.688 4.656q0.281 0.313 0.281 0.719t-0.281 0.688q-0.281 0.313-0.719 0.313-0.406 0-0.719-0.313l-2.938-2.938v13.656q0 1.219 0.875 2.109t2.125 0.891z"></path>
</svg>
